<svg width="52" height="52" viewBox="0 0 52 52" fill="none" xmlns="http://www.w3.org/2000/svg">
<path d="M8.14355 33.143C8.14355 28.407 10.0249 23.865 13.3738 20.5162C16.7227 17.1674 21.2648 15.286 26.0009 15.286C30.7369 15.286 35.279 17.1674 38.6279 20.5162C41.9768 23.865 43.8582 28.407 43.8582 33.143C43.8582 37.879 41.9768 42.421 38.6279 45.7698C35.279 49.1187 30.7369 51 26.0009 51C21.2648 51 16.7227 49.1187 13.3738 45.7698C10.0249 42.421 8.14355 37.879 8.14355 33.143Z" stroke="#11D48F" stroke-width="2"/>
<path d="M1 18.857C1 14.121 2.88139 9.57904 6.23029 6.2302C9.57918 2.88136 14.1213 1 18.8573 1C23.5934 1 28.1355 2.88136 31.4844 6.2302C34.8332 9.57904 36.7146 14.121 36.7146 18.857C36.7146 23.593 34.8332 28.135 31.4844 31.4838C28.1355 34.8327 23.5934 36.714 18.8573 36.714C14.1213 36.714 9.57918 34.8327 6.23029 31.4838C2.88139 28.135 1 23.593 1 18.857Z" stroke="#11D48F" stroke-width="2"/>
<path d="M15.2852 18.857C15.2852 14.121 17.1665 9.57904 20.5154 6.2302C23.8643 2.88136 28.4064 1 33.1425 1C37.8785 1 42.4206 2.88136 45.7695 6.2302C49.1184 9.57904 50.9998 14.121 50.9998 18.857C50.9998 23.593 49.1184 28.135 45.7695 31.4838C42.4206 34.8327 37.8785 36.714 33.1425 36.714C28.4064 36.714 23.8643 34.8327 20.5154 31.4838C17.1665 28.135 15.2852 23.593 15.2852 18.857Z" stroke="#11D48F" stroke-width="2"/>
</svg>
