<svg width="161" height="33" viewBox="0 0 161 33" fill="none" xmlns="http://www.w3.org/2000/svg">
<path d="M134.191 20.2857C134.191 17.4442 135.324 14.719 137.341 12.7097C139.358 10.7003 142.094 9.57153 144.946 9.57153C147.798 9.57153 150.534 10.7003 152.55 12.7097C154.567 14.719 155.7 17.4442 155.7 20.2857C155.7 23.1273 154.567 25.8525 152.55 27.8618C150.534 29.8711 147.798 30.9999 144.946 30.9999C142.094 30.9999 139.358 29.8711 137.341 27.8618C135.324 25.8525 134.191 23.1273 134.191 20.2857Z" stroke="#14D990" stroke-width="1.5"/>
<path d="M129.889 11.7143C129.889 8.87268 131.022 6.14748 133.039 4.13818C135.055 2.12888 137.791 1.00006 140.643 1.00006C143.495 1.00006 146.231 2.12888 148.248 4.13818C150.265 6.14748 151.398 8.87268 151.398 11.7143C151.398 14.5558 150.265 17.281 148.248 19.2904C146.231 21.2997 143.495 22.4285 140.643 22.4285C137.791 22.4285 135.055 21.2997 133.039 19.2904C131.022 17.281 129.889 14.5558 129.889 11.7143Z" stroke="#14D990" stroke-width="1.5"/>
<path d="M138.491 11.7142C138.491 8.87262 139.624 6.14742 141.641 4.13812C143.658 2.12881 146.393 1 149.246 1C152.098 1 154.833 2.12881 156.85 4.13812C158.867 6.14742 160 8.87262 160 11.7142C160 14.5558 158.867 17.281 156.85 19.2903C154.833 21.2996 152.098 22.4284 149.246 22.4284C146.393 22.4284 143.658 21.2996 141.641 19.2903C139.624 17.281 138.491 14.5558 138.491 11.7142Z" stroke="#14D990" stroke-width="1.5"/>
<path d="M11.2216 26.0002C8.11842 26.0002 5.46975 24.9031 3.27558 22.7246C1.09708 20.5304 0 17.8818 0 14.7786C0 11.597 1.09708 8.91702 3.27558 6.73852C5.46975 4.54435 8.11842 3.44727 11.2216 3.44727C14.3091 3.44727 16.9578 4.54435 19.1363 6.73852C21.3304 8.91702 22.4275 11.5657 22.4275 14.6689C22.4275 17.8504 21.3304 20.5304 19.1363 22.7246C16.9578 24.9031 14.3091 26.0002 11.2216 26.0002ZM11.3156 22.5052C13.4941 22.5052 15.3435 21.7372 16.8951 20.2013C18.4467 18.6497 19.2146 16.8003 19.2146 14.6219C19.2146 12.4434 18.4467 10.5783 16.8951 9.0424C15.3435 7.49081 13.4941 6.72285 11.3156 6.72285C9.13714 6.72285 7.2721 7.49081 5.72051 9.0424C4.18459 10.5783 3.41663 12.4434 3.41663 14.6219C3.41663 16.8003 4.18459 18.6497 5.72051 20.2013C7.2721 21.7372 9.13714 22.5052 11.3156 22.5052ZM24.0105 32.567V18.3833C24.0105 16.2675 24.7471 14.4808 26.236 12.9919C27.7249 11.503 29.5272 10.7664 31.6274 10.7664C33.7432 10.7664 35.5299 11.503 37.0188 12.9919C38.5077 14.4808 39.2443 16.2675 39.2443 18.3833C39.2443 20.4834 38.5077 22.2858 37.0188 23.7747C36.1568 24.621 35.1537 25.2479 33.9783 25.6397C33.226 25.8748 32.4423 26.0002 31.6274 26.0002H28.054C28.0697 25.1225 28.3675 24.3702 28.9787 23.759C29.5899 23.1478 30.3422 22.8343 31.2199 22.8343H31.6274C32.8655 22.8343 33.9156 22.3955 34.7776 21.5335C35.6396 20.6715 36.0784 19.6214 36.0784 18.3833C36.0784 17.1451 35.6396 16.0951 34.7776 15.2331C33.9156 14.3554 32.8655 13.9166 31.6274 13.9166C30.3892 13.9166 29.3392 14.3554 28.4772 15.2331C27.6152 16.0951 27.1763 17.1451 27.1763 18.3833V29.4168C27.1763 30.2788 26.8629 31.0311 26.2517 31.6423C25.6404 32.2536 24.8881 32.567 24.0105 32.567ZM55.3714 26.0002H49.2121C47.1119 26.0002 45.3096 25.2636 43.8207 23.7747C42.3318 22.2858 41.5952 20.4834 41.5952 18.3833C41.5952 16.2675 42.3318 14.4808 43.8207 12.9919C45.3096 11.503 47.1119 10.7664 49.2121 10.7664C51.3122 10.7664 53.1145 11.503 54.6034 12.9919C55.6535 14.042 56.3431 15.3114 56.6722 16.8003C56.7819 17.3175 56.829 17.8347 56.829 18.3833C56.829 18.9318 56.7819 19.449 56.6722 19.9505H45.5447C45.5447 19.0886 45.8581 18.3363 46.4693 17.725C47.0806 17.1138 47.8329 16.8003 48.6949 16.8003H53.381C53.1459 16.1891 52.8168 15.6719 52.3623 15.2174C51.5003 14.3554 50.4502 13.9166 49.2121 13.9166C47.9739 13.9166 46.9239 14.3554 46.0619 15.2331C45.1999 16.0951 44.761 17.1451 44.761 18.3833C44.761 19.6214 45.1999 20.6715 46.0619 21.5335C46.9239 22.3955 47.9739 22.8343 49.2121 22.8343H52.2212C53.1302 22.8343 53.8982 23.1634 54.5251 23.8374C55.0893 24.4486 55.3714 25.1695 55.3714 26.0002ZM74.4136 26.0002C73.5516 26.0002 72.7994 25.6867 72.1881 25.0755C71.5769 24.4643 71.2634 23.712 71.2634 22.85V18.3833C71.2634 17.1295 70.8246 16.0794 69.9313 15.2174C69.0379 14.3554 67.9565 13.9323 66.687 13.9323H66.64C65.4019 14.0106 64.3675 14.4808 63.5525 15.3585C62.7375 16.2361 62.33 17.2862 62.33 18.493V22.85C62.33 23.712 62.0166 24.4643 61.4054 25.0755C60.7941 25.6867 60.0418 26.0002 59.1798 26.0002V10.7664C60.0418 10.7664 60.7941 11.0798 61.4054 11.6911C61.6405 11.9262 61.8285 12.1769 61.9852 12.4747C63.3644 11.3306 64.963 10.7664 66.7967 10.7664C68.8969 10.7664 70.6836 11.5187 72.1725 13.0076C73.6614 14.4965 74.4136 16.2832 74.4136 18.3833V26.0002ZM82.8925 26.0002L75.0406 12.412C75.5577 12.1299 76.0749 11.9889 76.6235 11.9889C77.7049 11.9889 78.6139 12.5217 79.3505 13.5718L82.8925 19.6841L86.4189 13.5718C87.1555 12.5217 88.0645 11.9889 89.1616 11.9889C89.6945 11.9889 90.2117 12.1299 90.7289 12.412L82.8925 26.0002ZM93.0954 26.0002V13.9166C93.0954 13.0546 93.4089 12.3023 94.0201 11.6911C94.647 11.0798 95.3993 10.7664 96.2613 10.7664V22.8343C96.2613 23.712 95.9478 24.4643 95.3366 25.0755C94.7254 25.6867 93.9731 26.0002 93.0954 26.0002ZM93.0954 9.01105V7.94531C93.0954 7.08332 93.4089 6.33103 94.0201 5.7198C94.647 5.10857 95.3993 4.79512 96.2613 4.79512V5.86085C96.2613 6.72285 95.9478 7.47513 95.3366 8.08637C94.7254 8.6976 93.9731 9.01105 93.0954 9.01105ZM114.065 26.0002H98.6122C98.6122 25.4203 98.7532 24.8874 99.051 24.4016L108 13.9323H101.809C100.932 13.9323 100.179 13.6188 99.5682 13.0076C98.957 12.3807 98.6435 11.6284 98.6435 10.7664H114.081C114.081 11.4717 113.877 12.0986 113.47 12.6471L104.756 22.85H110.9C111.777 22.85 112.529 23.1634 113.141 23.7747C113.752 24.3859 114.065 25.1382 114.065 26.0002Z" fill="#14D990"/>
</svg>
